<svg width="395" height="247" viewBox="0 0 395 247" fill="none" xmlns="http://www.w3.org/2000/svg">
<path d="M354 247H17C12.4929 246.995 8.1718 245.202 4.98477 242.015C1.79775 238.828 0.00505274 234.507 0 230V41C0.00505274 36.4929 1.79775 32.1718 4.98477 28.9848C8.1718 25.7977 12.4929 24.0051 17 24H354C358.507 24.0051 362.828 25.7978 366.015 28.9848C369.202 32.1718 370.995 36.4929 371 41V230C370.995 234.507 369.202 238.828 366.015 242.015C362.828 245.202 358.507 246.995 354 247V247ZM17 26C13.0231 26.0045 9.21043 27.5863 6.39836 30.3984C3.58629 33.2104 2.0045 37.0231 2 41V230C2.0045 233.977 3.58629 237.79 6.39836 240.602C9.21043 243.414 13.0231 244.996 17 245H354C357.977 244.996 361.79 243.414 364.602 240.602C367.414 237.79 368.996 233.977 369 230V41C368.996 37.0231 367.414 33.2104 364.602 30.3984C361.79 27.5863 357.977 26.0045 354 26H17Z" fill="#E6E6E6"/>
<path d="M268.601 99.313H203.601C202.407 99.313 201.262 99.7871 200.419 100.631C199.575 101.475 199.101 102.62 199.101 103.813C199.101 105.006 199.575 106.151 200.419 106.995C201.262 107.839 202.407 108.313 203.601 108.313H268.601C269.794 108.313 270.939 107.839 271.783 106.995C272.626 106.151 273.101 105.006 273.101 103.813C273.101 102.62 272.626 101.475 271.783 100.631C270.939 99.7871 269.794 99.313 268.601 99.313Z" fill="#E6E6E6"/>
<path d="M331.96 127.813H202.741C200.73 127.813 199.101 129.833 199.101 132.313C199.101 134.793 200.73 136.813 202.741 136.813H331.96C333.971 136.813 335.601 134.793 335.601 132.313C335.601 129.833 333.971 127.813 331.96 127.813Z" fill="#E6E6E6"/>
<path d="M331.96 157H202.741C200.73 157 199.101 159.02 199.101 161.5C199.101 163.98 200.73 166 202.741 166H331.96C333.971 166 335.601 163.98 335.601 161.5C335.601 159.02 333.971 157 331.96 157Z" fill="#E6E6E6"/>
<path d="M154 205.5H42C39.2162 205.497 36.5473 204.39 34.5789 202.421C32.6104 200.453 31.5032 197.784 31.5 195V70C31.5032 67.2162 32.6104 64.5473 34.5789 62.5789C36.5473 60.6104 39.2162 59.5032 42 59.5H154C156.784 59.5032 159.453 60.6104 161.421 62.5789C163.39 64.5473 164.497 67.2162 164.5 70V195C164.497 197.784 163.39 200.453 161.421 202.421C159.453 204.39 156.784 205.497 154 205.5V205.5Z" fill="#E6E6E6"/>
<path d="M96.7028 182.663C94.1805 182.593 91.0415 182.504 88.6247 180.739C87.9047 180.191 87.3131 179.493 86.8914 178.693C86.4697 177.892 86.2281 177.01 86.1835 176.106C86.1398 175.464 86.2451 174.821 86.4913 174.226C86.7375 173.632 87.1178 173.102 87.6026 172.679C88.323 172.141 89.1666 171.792 90.0565 171.664C90.9463 171.536 91.8541 171.633 92.697 171.946L90.6379 156.898L92.1494 156.691L94.5701 174.381L93.308 173.802C91.8446 173.131 89.8358 172.79 88.5874 173.844C88.281 174.12 88.0422 174.463 87.8897 174.845C87.7372 175.228 87.6751 175.641 87.7082 176.052C87.7451 176.725 87.9265 177.381 88.2399 177.977C88.5534 178.573 88.9915 179.095 89.5246 179.507C91.4054 180.881 93.9075 181.058 96.7456 181.138L96.7028 182.663Z" fill="#3F3D56"/>
<path d="M83.1633 158.196H74.9463V159.721H83.1633V158.196Z" fill="#3F3D56"/>
<path d="M109.099 158.196H100.882V159.721H109.099V158.196Z" fill="#3F3D56"/>
<path d="M60.6703 137.128C54.0533 136.374 48.9286 130.034 48.3658 123.601C47.6961 115.948 52.1529 108.68 58.2673 104.385C64.6615 99.8941 72.6281 98.0186 80.3361 97.6058C95.3726 96.8575 110.15 101.728 121.795 111.271C127.57 116.068 132.965 122.179 135.009 129.559C136.784 135.969 135.34 143.231 130.184 147.72C128.909 148.82 127.419 149.644 125.81 150.14C124.2 150.636 122.505 150.792 120.832 150.6C116.832 150.184 113.141 148.081 109.946 145.758C103.731 141.24 98.6294 134.945 91.0579 132.584C85.5062 130.852 78.3018 132.376 74.9092 137.397C74.1394 138.546 73.6405 139.855 73.4502 141.225C73.3801 141.517 73.4236 141.825 73.572 142.087C73.7204 142.348 73.9625 142.543 74.2494 142.633C74.5419 142.711 74.8538 142.672 75.1173 142.522C75.3808 142.372 75.5747 142.125 75.6569 141.833C76.5476 135.51 84.3228 133.15 89.7789 134.595C97.7342 136.7 103.074 143.799 109.601 148.309C112.98 150.828 116.96 152.417 121.145 152.917C124.773 153.201 128.374 152.095 131.217 149.822C136.793 145.419 138.925 137.846 137.692 131.028C136.264 123.133 130.95 116.366 125.119 111.127C113.298 100.618 97.9521 94.9485 82.1382 95.2486C74.0723 95.4339 65.6564 97.099 58.7077 101.362C51.9675 105.497 46.7578 112.416 46.0769 120.457C45.4776 127.536 49.2753 134.939 55.7942 138.04C57.3313 138.768 58.9795 139.233 60.6704 139.417C62.1312 139.583 62.1193 137.293 60.6704 137.128H60.6703Z" fill="#3F3D56"/>
<path d="M358 74C378.435 74 395 57.4345 395 37C395 16.5655 378.435 0 358 0C337.565 0 321 16.5655 321 37C321 57.4345 337.565 74 358 74Z" fill="#DE1919"/>
<path d="M366.784 22.1021L358 31.1798L349.216 22.1021C347.794 20.6326 345.488 20.6326 344.066 22.1021C342.645 23.5716 342.645 25.9541 344.066 27.4235L352.851 36.5013L344.066 45.579C342.646 47.0498 342.648 49.4323 344.071 50.9004C345.493 52.3665 347.794 52.3665 349.216 50.9004L358 41.8227L366.784 50.9004C368.207 52.3685 370.513 52.3663 371.934 50.8954C373.352 49.4265 373.352 47.0479 371.934 45.579L363.149 36.5013L371.934 27.4235C373.355 25.9541 373.355 23.5716 371.934 22.1021C370.512 20.6326 368.206 20.6326 366.784 22.1021V22.1021Z" fill="white"/>
</svg>
